<?xml version="1.0" encoding="utf-8"?>
<!-- Generator: Adobe Illustrator 14.0.0, SVG Export Plug-In . SVG Version: 6.00 Build 43363)  -->
<!DOCTYPE svg PUBLIC "-//W3C//DTD SVG 1.1//EN" "http://www.w3.org/Graphics/SVG/1.1/DTD/svg11.dtd">
<svg version="1.1"
	 id="svg2" xmlns:inkscape="http://www.inkscape.org/namespaces/inkscape" sodipodi:docname="        .svg" xmlns:cc="http://creativecommons.org/ns#" inkscape:version="0.47 r22583" xmlns:sodipodi="http://sodipodi.sourceforge.net/DTD/sodipodi-0.dtd" xmlns:rdf="http://www.w3.org/1999/02/22-rdf-syntax-ns#" xmlns:dc="http://purl.org/dc/elements/1.1/" xmlns:svg="http://www.w3.org/2000/svg"
	 xmlns="http://www.w3.org/2000/svg" xmlns:xlink="http://www.w3.org/1999/xlink" x="0px" y="0px" width="60px" height="70px"
	 viewBox="75.913 90 60 70" enable-background="new 75.913 90 60 70" xml:space="preserve">
<defs>
	
	
		<inkscape:perspective  id="perspective10" inkscape:vp_y="0 : 1000 : 0" inkscape:persp3d-origin="372.04724 : 350.78739 : 1" inkscape:vp_z="744.09448 : 526.18109 : 1" sodipodi:type="inkscape:persp3d" inkscape:vp_x="0 : 526.18109 : 1">
		</inkscape:perspective>
	
		<inkscape:perspective  id="perspective13" inkscape:vp_y="0 : 1000 : 0" inkscape:persp3d-origin="376.56 : 223.84001 : 1" inkscape:vp_z="753.12 : 335.76001 : 1" sodipodi:type="inkscape:persp3d" inkscape:vp_x="0 : 335.76001 : 1">
		</inkscape:perspective>
	
		<inkscape:perspective  id="perspective12" inkscape:vp_y="0 : 1000 : 0" inkscape:persp3d-origin="372.04724 : 350.78739 : 1" inkscape:vp_z="744.09448 : 526.18109 : 1" sodipodi:type="inkscape:persp3d" inkscape:vp_x="0 : 526.18109 : 1">
		</inkscape:perspective>
	
		<inkscape:perspective  id="perspective2897" inkscape:vp_y="0 : 1000 : 0" inkscape:persp3d-origin="0.5 : 0.33333333 : 1" inkscape:vp_z="1 : 0.5 : 1" sodipodi:type="inkscape:persp3d" inkscape:vp_x="0 : 0.5 : 1">
		</inkscape:perspective>
	
		<inkscape:perspective  id="perspective2911" inkscape:vp_y="0 : 1000 : 0" inkscape:persp3d-origin="0.5 : 0.33333333 : 1" inkscape:vp_z="1 : 0.5 : 1" sodipodi:type="inkscape:persp3d" inkscape:vp_x="0 : 0.5 : 1">
		</inkscape:perspective>
	
		<inkscape:perspective  id="perspective2948" inkscape:vp_y="0 : 1000 : 0" inkscape:persp3d-origin="0.5 : 0.33333333 : 1" inkscape:vp_z="1 : 0.5 : 1" sodipodi:type="inkscape:persp3d" inkscape:vp_x="0 : 0.5 : 1">
		</inkscape:perspective>
</defs>
<sodipodi:namedview  inkscape:snap-center="true" inkscape:guide-bbox="true" showguides="true" inkscape:object-paths="true" showborder="false" inkscape:snap-global="true" id="base" inkscape:document-units="px" showgrid="false" inkscape:pageopacity="0.0" inkscape:current-layer="layer1" inkscape:window-height="904" inkscape:window-y="-4" inkscape:window-x="-4" inkscape:window-width="1280" inkscape:pageshadow="2" inkscape:zoom="0.91396213" inkscape:cy="169.56128" bordercolor="#666666" borderopacity="1.0" pagecolor="#ffffff" inkscape:cx="91.774831" inkscape:snap-object-midpoints="true" inkscape:window-maximized="1">
	</sodipodi:namedview>
<g id="layer1" transform="translate(1028.4927,-486.77894)" inkscape:groupmode="layer" inkscape:label="Layer 1">
	
		<path id="path2954" sodipodi:nodetypes="csssccscccccscsssssssccccscssssssccsccccsccssccscszccsccssccccccssccscccsscccccsccccssssccsscccccssssccccscccccsssccccsssccccsccsccccsssccccsccssssssssssssscsscsssssssccscssccsccscccccssccccscszccccc" d="
		M-922.579,616.4c0.459,0,0.508-0.031,1.346,1.048c0.489,0.632,1.55,1.979,2.111,2.79l8.419-0.031
		c1.049-0.047,1.164-0.169,1.599-0.479c0.794-0.57,1.534-1.533,3.272-4.259c0.524-0.823,1.194-1.861,1.489-2.308
		c0.446-0.718,0.282-0.833,1.462-1.069c-0.854,2.119-1.946,4.613-2.677,5.723c-1.439,2.181-3.73,4.521-8.272,5.979
		c3.533-0.611,4.651-1.688,7.004-3.608c-1.598,3.302-3.827,6.285-5.889,9.298c4.633-4.93,9.077-10.393,11.449-16.808
		c0.412-1.256,0.878-2.98,0.824-3.035c-0.874,0.978-1.935,2.062-4.186,2.115c-3.407,0.079-6.031-0.961-8.491-2.821
		c-0.259,0.189-0.574,0.354-0.58,0.739c-0.005,0.362,0.393,0.762,1.169,1.201c1.276,0.721,4.553,1.573,6.047,1.573
		c0.189,0,0.345,0.018,0.345,0.041s-0.879,1.139-1.952,2.479c-1.648,2.057-1.997,2.45-2.233,2.532
		c-0.552,0.189-3.63,0.064-5.283-0.215c-0.794-0.134-1.148-0.28-1.573-0.654c-0.77-0.785-1.355-1.755-2.141-2.503
		c-0.872,0.329-1.796,0.671-3.26,0.688c-1.142,0.013-2.207-0.295-3.26-0.688c-0.786,0.748-1.371,1.718-2.141,2.503
		c-0.425,0.374-0.779,0.521-1.573,0.654c-1.654,0.279-4.732,0.404-5.283,0.215c-0.237-0.082-0.586-0.476-2.233-2.532
		c-1.075-1.34-1.953-2.455-1.953-2.479s0.154-0.041,0.344-0.041c1.495,0,4.771-0.852,6.047-1.573
		c0.777-0.439,1.174-0.838,1.169-1.201c-0.006-0.386-0.321-0.55-0.58-0.739c-2.46,1.859-5.084,2.899-8.49,2.821
		c-2.252-0.052-3.313-1.137-4.186-2.115c-0.055,0.055,0.412,1.779,0.824,3.035c2.374,6.415,6.816,11.878,11.449,16.808
		c-2.062-3.013-4.291-5.996-5.89-9.298c2.354,1.921,3.472,2.997,7.004,3.608c-4.541-1.458-6.832-3.799-8.271-5.979
		c-0.731-1.11-1.823-3.604-2.677-5.723c1.18,0.236,1.016,0.351,1.463,1.069c0.294,0.446,0.964,1.484,1.489,2.308
		c1.737,2.726,2.478,3.688,3.271,4.259c0.434,0.31,0.55,0.432,1.599,0.479l8.418,0.031c0.562-0.811,1.623-2.158,2.112-2.79
		C-923.088,616.369-923.039,616.4-922.579,616.4z M-936.638,584.249c-2.939,0.029-5.603,1.688-6.946,6.124
		c2.383-1.262,5.458-1.236,8.097-0.33c3.519,1.208,6.529,3.98,9.13,7.591c-0.29-2.096-1.161-4.271-1.716-5.396
		c0.513,0.083,1.236,0.333,1.556-0.059c0.345-0.425,0.074-0.856-0.267-1.212c-2.753-2.876-6.466-4.75-10.481-4.909
		c2.594-0.12,5.863,0.31,8.77,1.472C-930.873,585.632-933.876,584.222-936.638,584.249L-936.638,584.249z M-908.522,584.249
		c-2.762-0.027-5.765,1.383-8.142,3.281c2.907-1.162,6.176-1.592,8.77-1.472c-4.015,0.159-7.728,2.032-10.48,4.909
		c-0.342,0.356-0.612,0.787-0.269,1.212c0.32,0.393,1.044,0.143,1.557,0.059c-0.555,1.125-1.427,3.3-1.715,5.396
		c2.601-3.611,5.61-6.383,9.129-7.591c2.64-0.906,5.714-0.932,8.098,0.33C-902.917,585.938-905.583,584.278-908.522,584.249z
		 M-934.939,594.873c-1.314,0.014-2.417,0.208-3.25,0.571c-1.644,0.715-2.652,3.459-4.126,3.604
		c-1.324,0.129-2.086-1.706-2.646-2.682c0.351,1.107,0.938,2.246,1.683,3.047c-0.76,0.483-1.573,0.972-2.129,1.685
		c0.987-0.673,1.973-1.338,2.905-1.231c-1.099,0.603-2.651,1.442-3.403,2.806c1.307-1.285,2.887-2.453,4.789-2.35
		c0.55,0.03,0.715,0.075,1.379,0.391c1.68,0.963,3.518,0.986,5.376,0.966v-1.138c-1.322-0.003-2.64-0.165-3.935-0.424
		c-0.544-0.139-1.481-0.583-1.67-0.792c-0.128-0.143-0.126-0.166,0.038-0.556c0.429-1.014,1.124-1.822,1.996-2.368
		c1.065-0.667,2.333-0.79,3.561-0.754c0.004,0,0.008,0,0.011,0v-0.764c-0.006,0-0.018-0.002-0.023-0.002
		c-0.098-0.002-0.193-0.006-0.289-0.007C-934.763,594.873-934.851,594.872-934.939,594.873L-934.939,594.873L-934.939,594.873z
		 M-910.485,594.873c-0.097,0.001-0.191,0.005-0.289,0.007c-0.005,0-0.019,0.002-0.025,0.002v0.764c0.006,0,0.009,0,0.014,0
		c1.227-0.035,2.494,0.087,3.561,0.754c0.871,0.545,1.566,1.354,1.994,2.368c0.165,0.39,0.167,0.413,0.038,0.556
		c-0.189,0.209-1.126,0.654-1.671,0.792c-1.294,0.259-2.612,0.421-3.936,0.424v1.138c1.86,0.02,3.698-0.003,5.377-0.966
		c0.665-0.316,0.829-0.361,1.38-0.392c1.903-0.103,3.482,1.065,4.789,2.351c-0.752-1.364-2.304-2.203-3.402-2.806
		c0.932-0.107,1.918,0.558,2.903,1.231c-0.555-0.713-1.367-1.201-2.128-1.685c0.744-0.801,1.332-1.94,1.683-3.047
		c-0.562,0.977-1.323,2.812-2.647,2.683c-1.473-0.145-2.481-2.888-4.125-3.604c-0.832-0.362-1.936-0.558-3.25-0.571
		C-910.308,594.872-910.396,594.873-910.485,594.873L-910.485,594.873L-910.485,594.873z M-933.514,594.988v0.742
		c1.987,0.314,4.261,1.445,4.785,2.498c-1.548-1.076-3.34-1.947-5.252-1.918c-1.242,0.019-2.793,0.336-4.004,1.007
		c-0.611,0.338-1.475,1.098-1.489,1.333c-0.055,0.925,4.086,1.432,5.575,1.367c1.743-0.074,3.499-0.155,5.049-0.916
		c-0.883,1.197-2.97,1.373-4.663,1.422v1.133c2.655-0.15,5.917-1.353,5.906-2.909C-927.625,596.366-931.634,595.305-933.514,594.988
		L-933.514,594.988z M-911.646,594.988c-1.879,0.317-5.888,1.378-5.905,3.761c-0.012,1.556,3.25,2.758,5.905,2.909v-1.133
		c-1.691-0.05-3.779-0.226-4.662-1.422c1.55,0.761,3.307,0.842,5.05,0.916c1.487,0.064,5.629-0.442,5.574-1.367
		c-0.015-0.235-0.878-0.995-1.489-1.333c-1.21-0.671-2.763-0.989-4.005-1.007c-1.913-0.029-3.704,0.843-5.252,1.918
		c0.524-1.053,2.798-2.184,4.784-2.498V594.988L-911.646,594.988z M-925.539,596.221c-0.008,4.632-0.729,7.862-3.665,11.417
		c-0.652,0.788-1.424,1.644-1.458,2.72c-0.027,0.809,0.352,1.541,0.839,2.243c-0.285-0.689-0.474-1.364-0.394-2.114
		c0.07-0.659,0.533-1.12,1.883-2.448c1.298-1.279,1.542-1.583,1.778-1.33c0.104,0.112,0.088,0.761-0.058,1.938
		c-0.209,1.695-0.137,2.857,0.225,3.573c0.371,0.735,1.349,1.334,2.677,1.646c0.287,0.067,0.7,0.086,1.131,0.086
		s0.844-0.019,1.131-0.086c1.329-0.312,2.307-0.911,2.678-1.646c0.36-0.716,0.435-1.877,0.225-3.573
		c-0.146-1.177-0.162-1.826-0.058-1.938c0.234-0.253,0.479,0.051,1.778,1.33c1.35,1.329,1.812,1.79,1.883,2.448
		c0.08,0.75-0.109,1.425-0.395,2.114c0.488-0.702,0.866-1.434,0.841-2.243c-0.035-1.076-0.808-1.933-1.458-2.72
		c-2.937-3.554-3.658-6.785-3.666-11.417c-0.509,2.433-0.437,6.069-0.343,9.202c0.058,1.978,0.215,3.274,0.424,4.472
		c0.198,1.135,0.169,2-0.229,2.325c-0.754,0.614-1.809,0.836-2.811,0.837c-1.002,0.001-2.056-0.22-2.812-0.837
		c-0.397-0.326-0.427-1.189-0.229-2.325c0.208-1.198,0.365-2.494,0.425-4.472C-925.102,602.29-925.03,598.654-925.539,596.221
		L-925.539,596.221z M-928.009,612.477c-0.109,0.004-0.211,0.02-0.303,0.048c-0.173,0.054-0.188,0.322,0.029,0.609
		c0.247,0.293,0.509,0.432,1.078,0.572c0.557,0.137,0.864,0.142,0.9-0.036C-926.168,612.998-927.246,612.452-928.009,612.477
		L-928.009,612.477z M-917.151,612.477c-0.763-0.025-1.841,0.521-1.703,1.193c0.035,0.178,0.342,0.173,0.899,0.036
		c0.568-0.141,0.832-0.279,1.079-0.572c0.216-0.287,0.2-0.556,0.027-0.609C-916.939,612.497-917.042,612.481-917.151,612.477
		L-917.151,612.477z M-928.605,620.548c-0.124,0.112-0.315,0.219-0.216,0.372c0.105,0.167,1.152,0.423,2.629,0.494
		c2.401,0.114,4.825,0.158,7.226,0c1.477-0.099,2.523-0.327,2.63-0.494c0.097-0.153-0.094-0.26-0.218-0.372H-928.605
		L-928.605,620.548z M-925.582,625.125c0.92,1.079,1.446,1.643,1.441,2.466c-0.008,1.543-0.677,1.726-0.608,4.183
		c0.056,1.973,0.375,3.258,0.559,4.511c0.437,2.979,0.947,3.026,1.611,3.026s1.174-0.047,1.61-3.026
		c0.184-1.253,0.503-2.538,0.559-4.511c0.068-2.457-0.599-2.64-0.608-4.183c-0.005-0.823,0.521-1.387,1.44-2.466H-925.582
		L-925.582,625.125z"/>
</g>
</svg>
