<?xml version="1.0" encoding="utf-8"?>
<!-- Generator: Adobe Illustrator 14.0.0, SVG Export Plug-In . SVG Version: 6.00 Build 43363)  -->
<!DOCTYPE svg PUBLIC "-//W3C//DTD SVG 1.1//EN" "http://www.w3.org/Graphics/SVG/1.1/DTD/svg11.dtd">
<svg version="1.1"
	 id="Calque_1" color-interpolation="auto" image-rendering="auto" shape-rendering="auto" text-rendering="auto" color-rendering="auto"
	 xmlns="http://www.w3.org/2000/svg" xmlns:xlink="http://www.w3.org/1999/xlink" x="0px" y="0px" width="60px" height="70px"
	 viewBox="93.531 238.805 60 70" enable-background="new 93.531 238.805 60 70" xml:space="preserve">
<g>
	<g>
		<path fill="#222222" d="M141.281,296.623c0,0.272-0.132,0.532-0.396,0.779c-0.264,0.246-0.531,0.37-0.804,0.37
			c-0.238,0-4.311-2.287-12.219-6.862c-4.558-2.636-9.124-5.281-13.699-7.934c-0.392-0.187-0.783-0.383-1.174-0.586
			c-0.459-0.255-0.756-0.553-0.893-0.893c-0.425-1.089-1.905-5.442-4.439-13.061c-2.585-7.755-3.877-11.786-3.877-12.092
			c0-0.782,0.399-1.173,1.199-1.173c0.34,0,2.602,1.25,6.786,3.75l0.051-8.087c0-0.238,0.102-0.463,0.306-0.676
			s0.425-0.319,0.663-0.319l16.123,9.234c0.697-0.629,1.812-1.479,3.342-2.551l9.031,5.127V296.623z M139.189,292.261v-29.336
			l-6.786-4.005l-3.469,2.551l-14.949-8.521v7.219c4.218,2.466,9.371,5.434,15.459,8.903c0.816,0.459,1.353,0.791,1.607,0.995
			c0.544,0.425,0.944,0.918,1.199,1.479c0.17,0.544,0.425,1.344,0.765,2.398C133.815,276.377,135.873,282.482,139.189,292.261z
			 M137.582,294.175c-3.078-8.963-5.536-16.318-7.372-22.066c-0.714-0.664-2.321-1.709-4.821-3.138
			c-4.218-2.364-10.536-5.927-18.954-10.689l7.5,22.245L137.582,294.175z"/>
	</g>
</g>
</svg>
